<?xml version="1.0" encoding="UTF-8" standalone="no" ?>
<!DOCTYPE svg PUBLIC "-//W3C//DTD SVG 1.1//EN" "http://www.w3.org/Graphics/SVG/1.1/DTD/svg11.dtd">
<svg xmlns="http://www.w3.org/2000/svg" xmlns:xlink="http://www.w3.org/1999/xlink" version="1.1" width="1080" height="1080" viewBox="0 0 1080 1080" xml:space="preserve">
<desc>Created with Fabric.js 5.2.4</desc>
<defs>
</defs>
<rect x="0" y="0" width="100%" height="100%" fill="transparent"></rect>
<g transform="matrix(1 0 0 1 540 540)" id="8a003e16-af72-4dc7-91a4-14a5162fc560"  >
<rect style="stroke: none; stroke-width: 1; stroke-dasharray: none; stroke-linecap: butt; stroke-dashoffset: 0; stroke-linejoin: miter; stroke-miterlimit: 4; fill: rgb(255,255,255); fill-rule: nonzero; opacity: 1; visibility: hidden;" vector-effect="non-scaling-stroke"  x="-540" y="-540" rx="0" ry="0" width="1080" height="1080" />
</g>
<g transform="matrix(1 0 0 1 540 540)" id="9ccc3a21-eac5-4b05-abd6-67dc23779e84"  >
</g>
<g transform="matrix(0.88 0 0 0.87 451.72 540)"  >
<path style="stroke: none; stroke-width: 0; stroke-dasharray: none; stroke-linecap: butt; stroke-dashoffset: 0; stroke-linejoin: miter; stroke-miterlimit: 4; fill: rgb(252,62,4); fill-rule: nonzero; opacity: 1;" vector-effect="non-scaling-stroke"  transform=" translate(-1399.69, -904.91)" d="M 1352.09 333.13 C 1437.6499999999999 311.04 1528.1599999999999 308.52 1614.85 325.62 C 1716.4099999999999 345.5 1812.29 393.05 1889.85 461.53 C 1851.49 499.87 1813.1499999999999 538.24 1774.79 576.5699999999999 C 1745.18 551.81 1712.28 530.9599999999999 1677.12 514.9899999999999 C 1592.06 476.0299999999999 1494.06 466.5699999999999 1403 487.7599999999999 C 1330.53 504.4299999999999 1262.76 540.6799999999998 1208.42 591.3899999999999 C 1155.67 640.3599999999999 1115.48 702.7999999999998 1093.1000000000001 771.2299999999999 C 1067.3000000000002 849.55 1064.93 935.3599999999999 1086.1100000000001 1015.03 C 1103.95 1082.55 1138.8500000000001 1145.4099999999999 1186.46 1196.46 C 1234.8700000000001 1248.6200000000001 1296.45 1288.51 1363.98 1311.03 C 1448.21 1339.36 1541.31 1340.3999999999999 1626.21 1314.17 C 1680.43 1297.51 1731.16 1269.76 1774.66 1233.38 C 1813.02 1271.73 1851.3700000000001 1310.0800000000002 1889.72 1348.43 C 1846.28 1386.66 1797.21 1418.48 1744.55 1442.48 C 1684.47 1469.91 1619.7 1487.01 1553.92 1492.94 C 1470.42 1500.54 1385.29 1490.39 1306.1000000000001 1462.77 C 1239.21 1439.56 1176.64 1404.06 1122.2800000000002 1358.71 C 1075.63 1319.8500000000001 1034.9800000000002 1273.8 1002.2700000000002 1222.65 C 961.5100000000002 1159.0300000000002 933.1700000000002 1087.49 919.4500000000003 1013.1800000000001 C 903.1900000000003 925.4100000000001 906.9200000000003 833.95 930.6600000000003 747.8800000000001 C 948.8600000000004 681.6500000000001 978.8800000000003 618.7 1018.7500000000003 562.7800000000001 C 1057.2400000000002 508.7200000000001 1104.8700000000003 461.19000000000005 1159.0300000000004 422.8400000000001 C 1217.2200000000005 381.5400000000001 1282.9800000000005 350.94000000000005 1352.0900000000004 333.1300000000001 z" stroke-linecap="round" />
</g>
<g transform="matrix(0.88 0 0 0.87 942.33 540.49)"  >
<path style="stroke: none; stroke-width: 1; stroke-dasharray: none; stroke-linecap: butt; stroke-dashoffset: 0; stroke-linejoin: miter; stroke-miterlimit: 4; fill: rgb(252,62,4); fill-rule: nonzero; opacity: 1;" vector-effect="non-scaling-stroke"  transform=" translate(-1959.4, -904.98)" d="M 1828.46 630.25 C 1866.8 591.89 1905.18 553.56 1943.5 515.19 C 1987.95 565.61 2023.68 623.7 2048.59 686.1300000000001 C 2075.36 753.0500000000001 2089.52 824.95 2090.4100000000003 897.0100000000001 C 2091.4300000000003 970.1500000000001 2078.82 1043.48 2053.09 1111.96 C 2028.0300000000002 1178.89 1990.6100000000001 1241.13 1943.39 1294.76 L 1828.3400000000001 1179.71 C 1880.43 1117.64 1914.45 1040.56 1924.64 960.13 C 1931.2800000000002 908.46 1928.5700000000002 855.5699999999999 1916.41 804.9 C 1901.18 740.9 1870.68 680.68 1828.46 630.25 z" stroke-linecap="round" />
</g>
<g transform="matrix(0.88 0 0 0.87 540 351)"  >
<path style="stroke: none; stroke-width: 1; stroke-dasharray: none; stroke-linecap: butt; stroke-dashoffset: 0; stroke-linejoin: miter; stroke-miterlimit: 4; fill: rgb(252,62,4); fill-rule: nonzero; opacity: 1;" vector-effect="non-scaling-stroke"  transform=" translate(-1500, -688.37)" d="M 1359.06 552.42 C 1446.87 517.13 1547.97 516.37 1636.1999999999998 550.63 C 1637.7599999999998 551.24 1639.33 551.83 1640.9299999999998 552.42 C 1641.12 605.01 1640.9099999999999 657.6099999999999 1641.0299999999997 710.1999999999999 C 1594.0799999999997 757.29 1547.0199999999998 804.27 1499.9999999999998 851.3 C 1458.7799999999997 810.0999999999999 1417.5799999999997 768.88 1376.37 727.67 C 1370.6499999999999 721.76 1364.52 716.1899999999999 1359.06 710.0899999999999 C 1358.96 657.54 1358.94 604.9799999999999 1359.06 552.42 z" stroke-linecap="round" />
</g>
<g transform="matrix(0.88 0 0 0.87 350.34 540.5)"  >
<path style="stroke: none; stroke-width: 1; stroke-dasharray: none; stroke-linecap: butt; stroke-dashoffset: 0; stroke-linejoin: miter; stroke-miterlimit: 4; fill: rgb(252,62,4); fill-rule: nonzero; opacity: 1;" vector-effect="non-scaling-stroke"  transform=" translate(-1283.44, -904.98)" d="M 1147.38 764.1 C 1199.6200000000001 763.8000000000001 1251.88 764.0500000000001 1304.13 763.98 C 1306.0200000000002 763.76 1306.96 765.76 1308.25 766.8100000000001 C 1354.27 812.86 1400.35 858.85 1446.38 904.9100000000001 C 1399.3300000000002 951.95 1352.2900000000002 999.0000000000001 1305.21 1046.01 C 1252.6100000000001 1045.85 1199.99 1046.22 1147.4 1045.82 C 1130.46 1002.6099999999999 1121.0300000000002 956.41 1120.5500000000002 909.9699999999999 C 1119.7800000000002 860.1999999999999 1129.0900000000001 810.3799999999999 1147.38 764.0999999999999 z" stroke-linecap="round" />
</g>
<g transform="matrix(0.88 0 0 0.87 729.65 540.5)"  >
<path style="stroke: none; stroke-width: 1; stroke-dasharray: none; stroke-linecap: butt; stroke-dashoffset: 0; stroke-linejoin: miter; stroke-miterlimit: 4; fill: rgb(252,62,4); fill-rule: nonzero; opacity: 1;" vector-effect="non-scaling-stroke"  transform=" translate(-1716.55, -904.98)" d="M 1681.28 777.29 C 1685.87 772.9399999999999 1690.04 768.06 1694.87 764.03 C 1747.4299999999998 763.9399999999999 1800 763.9 1852.57 764.05 C 1869.57 806.93 1878.82 852.88 1879.4399999999998 899.02 C 1880.2099999999998 946.9399999999999 1871.85 995 1854.7999999999997 1039.8 C 1853.9999999999998 1041.78 1853.2399999999998 1043.78 1852.5999999999997 1045.83 C 1800.0099999999998 1046.21 1747.3999999999996 1045.84 1694.8099999999997 1046.01 C 1647.7099999999998 999.02 1600.6799999999998 951.95 1553.6199999999997 904.9 C 1596.1599999999996 862.35 1638.7299999999996 819.8299999999999 1681.2799999999997 777.29 z" stroke-linecap="round" />
</g>
<g transform="matrix(0.88 0 0 0.87 540 729.88)"  >
<path style="stroke: none; stroke-width: 1; stroke-dasharray: none; stroke-linecap: butt; stroke-dashoffset: 0; stroke-linejoin: miter; stroke-miterlimit: 4; fill: rgb(252,62,4); fill-rule: nonzero; opacity: 1;" vector-effect="non-scaling-stroke"  transform=" translate(-1500.01, -1121.47)" d="M 1438.78 1019.79 C 1459.19 999.37 1479.59 978.9399999999999 1500 958.53 C 1546.91 1005.5 1593.88 1052.4099999999999 1640.73 1099.43 C 1641.38 1106.19 1640.8 1113.14 1641 1119.97 C 1640.93 1165.8 1641.14 1211.63 1640.9 1257.45 C 1597.74 1274.56 1551.48 1283.8600000000001 1505.04 1284.3600000000001 C 1455.25 1285.14 1405.43 1275.7900000000002 1359.1399999999999 1257.5000000000002 C 1358.83 1204.9500000000003 1359.02 1152.3900000000003 1359.05 1099.8400000000001 C 1385.34 1072.92 1412.25 1046.5100000000002 1438.78 1019.7900000000002 z" stroke-linecap="round" />
</g>
</svg>