<?xml version="1.0" encoding="UTF-8"?>
<svg viewBox="372.17,314.44,2257.63,1771.14" xmlns="http://www.w3.org/2000/svg">
 <g id="icon" fill="#fc3e04">
  <path d="m1352.09 333.13c85.56-22.09 176.07-24.61 262.76-7.51 101.56 19.88 197.44 67.43 275 135.91-38.36 38.34-76.7 76.71-115.06 115.04-29.61-24.76-62.51-45.61-97.67-61.58-85.06-38.96-183.06-48.42-274.12-27.23-72.47 16.67-140.24 52.92-194.58 103.63-52.75 48.97-92.94 111.41-115.32 179.84-25.8 78.32-28.17 164.13-6.99 243.8 17.84 67.52 52.74 130.38 100.35 181.43 48.41 52.16 109.99 92.05 177.52 114.57 84.23 28.33 177.33 29.37 262.23 3.14 54.22-16.66 104.95-44.41 148.45-80.79 38.36 38.35 76.71 76.7 115.06 115.05-43.44 38.23-92.51 70.05-145.17 94.05-60.08 27.43-124.85 44.53-190.63 50.46-83.5 7.6-168.63-2.55-247.82-30.17-66.89-23.21-129.46-58.71-183.82-104.06-46.65-38.86-87.3-84.91-120.01-136.06-40.76-63.62-69.1-135.16-82.82-209.47-16.26-87.77-12.53-179.23 11.21-265.3 18.2-66.23 48.22-129.18 88.09-185.1 38.49-54.06 86.12-101.59 140.28-139.94 58.19-41.3 123.95-71.9 193.06-89.71z"/>
  <path d="m1828.46 630.25c38.34-38.36 76.72-76.69 115.04-115.06 44.45 50.42 80.18 108.51 105.09 170.94 26.77 66.92 40.93 138.82 41.82 210.88 1.02 73.14-11.59 146.47-37.32 214.95-25.06 66.93-62.48 129.17-109.7 182.8l-115.05-115.05c52.09-62.07 86.11-139.15 96.3-219.58 6.64-51.67 3.93-104.56-8.23-155.23-15.23-64-45.73-124.22-87.95-174.65z"/>
  <path d="m1359.06 552.42c87.81-35.29 188.91-36.05 277.14-1.79 1.56.61 3.13 1.2 4.73 1.79.19 52.59-.02 105.19.1 157.78-46.95 47.09-94.01 94.07-141.03 141.1-41.22-41.2-82.42-82.42-123.63-123.63-5.72-5.91-11.85-11.48-17.31-17.58-.1-52.55-.12-105.11 0-157.67z"/>
  <path d="m1147.38 764.1c52.24-.3 104.5-.05 156.75-.12 1.89-.22 2.83 1.78 4.12 2.83 46.02 46.05 92.1 92.04 138.13 138.1-47.05 47.04-94.09 94.09-141.17 141.1-52.6-.16-105.22.21-157.81-.19-16.94-43.21-26.37-89.41-26.85-135.85-.77-49.77 8.54-99.59 26.83-145.87z"/>
  <path d="m1681.28 777.29c4.59-4.35 8.76-9.23 13.59-13.26 52.56-.09 105.13-.13 157.7.02 17 42.88 26.25 88.83 26.87 134.97.77 47.92-7.59 95.98-24.64 140.78-.8 1.98-1.56 3.98-2.2 6.03-52.59.38-105.2.01-157.79.18-47.1-46.99-94.13-94.06-141.19-141.11 42.54-42.55 85.11-85.07 127.66-127.61z"/>
  <path d="m1438.78 1019.79c20.41-20.42 40.81-40.85 61.22-61.26 46.91 46.97 93.88 93.88 140.73 140.9.65 6.76.07 13.71.27 20.54-.07 45.83.14 91.66-.1 137.48-43.16 17.11-89.42 26.41-135.86 26.91-49.79.78-99.61-8.57-145.9-26.86-.31-52.55-.12-105.11-.09-157.66 26.29-26.92 53.2-53.33 79.73-80.05z"/>
 </g>
 <g id="text" fill="#272c2e">
  <path d="m2076.48 1673.82c12.5-2.77 26.26 1.29 34.88 10.85 12.71 12.58 13.98 34.65 3 48.7-6.44 8.58-16.57 14.47-27.39 14.82-10.91.77-21.93-3.7-29.24-11.82-11.94-12.13-13.85-32.81-4.18-46.84 5.38-7.78 13.56-13.83 22.93-15.71z"/>
  <path d="m2312.54 1673.82c9.15-1.87 19.11-.56 27.09 4.47 8.2 5.21 14.77 13.38 17.07 22.93 2.22 9.31 1.28 19.56-3.51 27.96-3.46 5.98-8.5 11.07-14.49 14.53-8.31 4.75-18.52 5.65-27.71 3.26-7.84-2.06-14.66-7.08-19.63-13.39-8.59-10.77-10.29-26.44-4.67-38.94 4.9-10.31 14.57-18.51 25.85-20.82z"/>
  <path d="m516.57 1679.81c23.47-2.63 47.58-.69 70.06 6.7 30.28 9.85 56.56 29.86 76.49 54.44 19.03 23.32 30.96 52.23 34.22 82.14 4.24 37.05-2.25 76.05-22.27 107.9-16.66 26.47-40.53 48.64-68.73 62.32-20.91 10.13-44.17 14.98-67.36 15.24-34.17.72-68.99-8.47-96.81-28.71-26.82-19.59-48.39-46.8-59.94-78.03-12.36-34.04-13.28-72.12-3.07-106.84 9.27-30.77 27.78-58.78 52.76-79.05 24.12-19.58 53.71-32.6 84.65-36.11m.88 58.88c-37.45 5.44-69.5 34.85-80.06 70.9-4.97 16.9-5.9 34.86-3.76 52.3 2.34 18.5 9.58 36.5 21.61 50.84 9.85 11.75 22.23 21.39 36 28.12 19.05 9.25 40.97 11.85 61.81 8.7 16.54-2.57 32.29-9.68 45.23-20.28 13.16-10.75 24.19-24.34 30.99-39.97 9.04-20.65 10.81-44.04 7.13-66.14-5.33-31.92-26.89-60.24-55.38-75.21-19.41-10.06-42.12-12.54-63.57-9.26z"/>
  <path d="m1694.3 1684.29c34.99-9.08 72.75-7.07 106.61 5.6 28.76 10.54 54.75 28.5 74.66 51.78-13.96 13.28-27.93 26.55-41.89 39.83-19.04-20.2-43.18-36.56-70.65-42.36-17.8-3.82-36.52-3.67-54.19.76-27.55 6.91-51.29 26.16-65.25 50.69-8.14 14.43-12.33 30.9-12.87 47.41-.91 21.88 3.6 44.34 15.06 63.18 14.66 24.97 40.96 41.98 69.17 47.41 25.44 4.76 52.76 2.2 75.94-9.75 16.07-8.43 29.88-20.47 42.8-33.07 13.52 14.14 27.07 28.26 40.6 42.41-22.3 21.68-47.48 41.79-77.43 51.58-23.39 7.72-48.34 9.81-72.84 8.39-27.21-1.62-54.37-9.01-77.65-23.42-27.38-16.93-49.69-42.26-62.15-72.01-12.69-30.38-15.57-64.31-11.2-96.76 4.78-34.95 21.85-68.14 48-91.88 20.78-18.83 46.17-32.62 73.28-39.79z"/>
  <path d="m2173.2 1682.7c19.42-.2 38.84-.04 58.27-.08.02 28.58-.03 57.17.02 85.76 11.49-.01 22.99.01 34.49-.01.07 16.77.04 33.55.02 50.33h-34.51c-.03 60.65-.02 121.31-.01 181.96-19.41.05-38.82.01-58.22.02-.02-60.66 0-121.32-.01-181.97-9.92-.06-19.84.05-29.74-.06.05-16.75.01-33.51.02-50.25 9.9-.05 19.8 0 29.72-.03-.02-28.56.06-57.12-.05-85.67z"/>
  <path d="m848.83 1767.62c22.5-7.22 47.53-6.5 69.58 1.99 26.54 10.55 47.99 32.4 59.72 58.27 8.62 19.1 11.73 40.31 11.23 61.15-.42 18.25-4.23 36.58-12.3 53.03-7.84 16.14-19.6 30.23-33.51 41.5-12.92 10.45-28.34 17.88-44.7 20.93-20.29 3.77-41.87 1.95-60.73-6.67-11.6-5.38-21.87-13.22-31.1-21.98-.04 36.58.03 73.15-.04 109.73-19.41-.09-38.83.13-58.25-.11.09-105.66.11-211.31-.01-316.96 19.42-.29 38.84-.03 58.26-.13.06 8.5 0 17 .03 25.51 11.81-11.65 25.94-21.19 41.82-26.26m9.63 49.06c-19.85 2.27-37.72 15.38-46.64 33.13-7.89 15.7-8.93 34.1-5.89 51.19 2.86 15.92 11.8 30.66 24.85 40.29 14.4 10.87 33.7 13.87 51.15 10.28 16.84-3.5 31.28-15.14 39.92-29.8 9.23-15.8 11.05-35.03 8.1-52.84-2.66-16.21-11.66-31.25-24.8-41.14-13.12-10.1-30.51-13.26-46.69-11.11z"/>
  <path d="m1085.45 1778.44c16.21-9.58 34.87-14.61 53.62-15.52 21.45-1.05 43.42 1.92 63.07 10.89 27.38 12.39 49.29 36.14 59.65 64.33 7.51 19.97 9.36 41.59 8.38 62.78-62.35.01-124.7-.02-187.05.01 2.41 15.82 10.35 31.01 23.16 40.85 15.01 11.87 35.21 14.94 53.8 12.75 17.08-1.95 33.11-10.22 45.23-22.3 16.31 7.66 32.58 15.4 48.87 23.09-9.65 13.77-21.85 25.9-36.34 34.53-12.79 7.72-27.3 12.27-42 14.57-29.33 4.29-60.62 2.03-87.22-11.94-28.28-14.99-50.11-42.08-57.89-73.23-5.32-21.32-5.3-43.91-.55-65.33 6.93-31.39 27.72-59.13 55.27-75.48m17.77 50.79c-7.66 7.32-12.91 16.71-17.43 26.19 42.14.01 84.28.02 126.42-.01-3.51-11.58-10.75-21.93-20.41-29.21-11.54-9.04-26.23-13.59-40.82-13.63-17.19-.36-34.83 5.11-47.76 16.66z"/>
  <path d="m1407.91 1770.94c18.44-8.67 39.94-10.56 59.63-5.33 15.36 4.09 29.34 13.11 39.61 25.21 12.55 15.34 16.49 35.78 16.63 55.14.04 51.57.02 103.15.01 154.72-19.24.01-38.48 0-57.72.01-.05-36.25.04-72.49-.06-108.73-.22-14.52-.37-29.12-2.68-43.48-1.99-11.61-8.27-23.28-19.24-28.56-15.21-7.18-34.65-4.26-47.09 7.07-11.43 10.18-17.67 25.18-19.57 40.14-1.84 18.23-1.41 36.58-1.5 54.87-.01 26.23.02 52.46-.01 78.69-19.41-.06-38.83.09-58.24-.08.07-77.4.03-154.79.02-232.19 19.4-.1 38.81 0 58.22-.05.04 7.96-.02 15.92.02 23.88 9.89-8.16 20.33-15.82 31.97-21.31z"/>
  <path d="m1986.66 1767.68c14.38-7.06 31.81-6.34 45.96.97-6.02 16.77-12.08 33.52-18.08 50.3-6.4-3.03-13.46-6.13-20.7-4.69-6.99 1.31-12.47 6.55-16.27 12.29-5.79 8.34-7.87 18.51-9.34 28.38-3.46 23.89-1.88 48.07-2.11 72.11-.01 24.55.02 49.09-.01 73.64-19.4 0-38.8.01-58.19 0-.01-77.43-.05-154.87.02-232.3 16.79.09 33.59-.19 50.37.14-.19 9.77-.02 19.54-.09 29.32 5.93-12.72 15.5-24.21 28.44-30.16z"/>
  <path d="m2468.63 1772.54c23.22-9.23 48.82-11.57 73.54-8.66 30.36 3.47 59.7 17.91 79.6 41.32 2.86 3.31 5.49 6.82 8.03 10.4-16.07 8.96-32.29 17.65-48.29 26.73-7.44-7.31-15.35-14.4-24.9-18.81-14.79-6.82-31.69-7.63-47.62-5.57-18.18 2.36-35.4 11.99-46.24 26.86-11.1 14.69-14.39 34.03-12.07 52 1.76 14.45 8.64 28.23 19.36 38.11 10.98 10.49 25.81 16.28 40.82 17.62 17.65 1.58 36.25-.83 51.7-10 7.17-4.2 13.45-9.81 18.74-16.21 15.31 10.47 30.61 20.98 45.89 31.51-9.91 12.87-22.22 23.97-36.4 31.95-17.58 10-37.67 14.97-57.75 16.22-19 1.09-38.29-.32-56.63-5.59-16.84-4.83-32.7-13.35-45.6-25.26-9.02-8.4-16.92-18.03-23.28-28.59-21.82-36.05-22.02-83.83-1.31-120.41 13.56-24.58 36.38-43.43 62.41-53.62z"/>
  <path d="m2055.31 1768.38c19.38.01 38.78-.03 58.17.02-.01 77.42-.01 154.84 0 232.27-19.39.04-38.79 0-58.18.01 0-77.43-.01-154.87.01-232.3z"/>
  <path d="m2291.36 1768.38c19.38 0 38.77-.01 58.16.01v232.29c-19.39.01-38.78 0-58.17 0 0-77.43 0-154.87.01-232.3z"/>
 </g>
</svg>
